<svg xmlns="http://www.w3.org/2000/svg" width="80" height="22" fill="none"><path fill="#fff" d="M6.308 16.65h6.351V21H.624V.555h5.684V16.65Zm18.363 4.553c-1.914 0-3.673-.445-5.278-1.334a10.301 10.301 0 0 1-3.828-3.741c-.928-1.605-1.392-3.412-1.392-5.423 0-2.01.464-3.809 1.392-5.394a10.017 10.017 0 0 1 3.828-3.741C20.998.68 22.757.236 24.671.236c1.934 0 3.693.445 5.278 1.334a9.81 9.81 0 0 1 3.8 3.741c.927 1.585 1.391 3.383 1.391 5.394 0 2.01-.464 3.818-1.392 5.423a10.082 10.082 0 0 1-3.799 3.741c-1.605.89-3.364 1.334-5.278 1.334Zm0-5.278c1.45 0 2.59-.474 3.422-1.421.85-.947 1.276-2.214 1.276-3.799 0-1.624-.425-2.9-1.276-3.828-.831-.947-1.972-1.421-3.422-1.421-1.47 0-2.62.474-3.45 1.421-.832.928-1.248 2.204-1.248 3.828 0 1.605.416 2.88 1.247 3.828.832.928 1.982 1.392 3.451 1.392Zm26.074-8.642a3.27 3.27 0 0 0-1.363-1.247c-.56-.29-1.227-.435-2-.435-1.431 0-2.562.464-3.394 1.392-.812.928-1.218 2.175-1.218 3.741 0 1.76.435 3.103 1.305 4.031.89.909 2.175 1.363 3.857 1.363 1.992 0 3.413-.899 4.263-2.697h-5.713V9.342h10.614v5.51c-.444 1.083-1.102 2.098-1.972 3.045-.85.947-1.933 1.73-3.248 2.349-1.314.6-2.813.899-4.495.899-2.049 0-3.866-.435-5.452-1.305a9.425 9.425 0 0 1-3.654-3.683C37.425 14.572 37 12.764 37 10.734c0-2.01.426-3.799 1.276-5.365a9.178 9.178 0 0 1 3.654-3.683C43.495.796 45.303.352 47.352.352c2.572 0 4.698.619 6.38 1.856 1.682 1.237 2.726 2.929 3.132 5.075h-6.119Zm18.7 13.92c-1.913 0-3.673-.445-5.277-1.334a10.301 10.301 0 0 1-3.829-3.741c-.928-1.605-1.392-3.412-1.392-5.423 0-2.01.464-3.809 1.392-5.394a10.017 10.017 0 0 1 3.829-3.741C65.772.68 67.53.236 69.445.236c1.934 0 3.693.445 5.279 1.334a9.81 9.81 0 0 1 3.798 3.741c.928 1.585 1.392 3.383 1.392 5.394 0 2.01-.463 3.818-1.392 5.423a10.082 10.082 0 0 1-3.799 3.741c-1.604.89-3.364 1.334-5.278 1.334Zm0-5.278c1.45 0 2.591-.474 3.423-1.421.85-.947 1.276-2.214 1.276-3.799 0-1.624-.426-2.9-1.276-3.828-.832-.947-1.972-1.421-3.422-1.421-1.47 0-2.62.474-3.451 1.421-.832.928-1.248 2.204-1.248 3.828 0 1.605.416 2.88 1.248 3.828.83.928 1.981 1.392 3.45 1.392Z"/></svg>