<svg xmlns="http://www.w3.org/2000/svg" width="13" height="13" fill="none"><g clip-path="url(#a)"><path fill="#000" d="M13 2.47a5.556 5.556 0 0 1-1.535.42 2.65 2.65 0 0 0 1.172-1.473 5.325 5.325 0 0 1-1.69.645 2.664 2.664 0 0 0-4.61 1.822c0 .212.018.415.062.608A7.544 7.544 0 0 1 .906 1.705a2.669 2.669 0 0 0 .819 3.562A2.632 2.632 0 0 1 .52 4.938v.03c0 1.295.924 2.37 2.135 2.618a2.66 2.66 0 0 1-.699.088c-.17 0-.343-.01-.504-.045a2.69 2.69 0 0 0 2.49 1.856 5.355 5.355 0 0 1-3.304 1.137c-.219 0-.429-.01-.638-.037a7.502 7.502 0 0 0 4.088 1.196c4.904 0 7.586-4.062 7.586-7.584 0-.117-.004-.231-.01-.344a5.316 5.316 0 0 0 1.336-1.384Z"/></g><defs><clipPath id="a"><path fill="#fff" d="M0 0h13v13H0z"/></clipPath></defs></svg>